<?xml version="1.0" encoding="iso-8859-1"?>
<!-- Generator: Adobe Illustrator 19.0.0, SVG Export Plug-In . SVG Version: 6.00 Build 0)  -->
<svg version="1.1" id="Layer_1" xmlns="http://www.w3.org/2000/svg" xmlns:xlink="http://www.w3.org/1999/xlink" x="0px" y="0px"
	 viewBox="0 0 512 512" style="enable-background:new 0 0 512 512;" xml:space="preserve">
<path style="fill:#4F5AA8;" d="M387.845,166.455c-4.552,0-8.24-3.688-8.24-8.24v-52.738c0-4.552,3.688-8.24,8.24-8.24
	s8.24,3.688,8.24,8.24v52.738C396.086,162.767,392.397,166.455,387.845,166.455z"/>
<path style="fill:#458FDE;" d="M494.421,105.476H281.27c-9.102,0-16.481-7.379-16.481-16.481V16.481
	C264.79,7.379,272.169,0,281.27,0h213.15c9.102,0,16.481,7.379,16.481,16.481v72.515
	C510.901,98.097,503.522,105.476,494.421,105.476z"/>
<g>
	<path style="fill:#4F5AA8;" d="M282.369,88.996V16.481C282.369,7.379,289.748,0,298.85,0H281.27
		c-9.102,0-16.481,7.379-16.481,16.481v72.515c0,9.102,7.379,16.481,16.481,16.481h17.579
		C289.748,105.476,282.369,98.097,282.369,88.996z"/>
	<path style="fill:#4F5AA8;" d="M305.991,83.502c-10.601,0-19.227-8.626-19.227-19.227V41.202c0-10.601,8.626-19.227,19.227-19.227
		H469.7c10.601,0,19.227,8.626,19.227,19.227v23.073c0,10.601-8.626,19.227-19.227,19.227H305.991z"/>
</g>
<path style="fill:#E5E5E5;" d="M297.751,64.275V41.202c0-4.551,3.689-8.24,8.24-8.24H469.7c4.551,0,8.24,3.689,8.24,8.24v23.073
	c0,4.551-3.689,8.24-8.24,8.24H305.991C301.441,72.515,297.751,68.826,297.751,64.275z"/>
<g>
	<polygon style="fill:#FFFFFF;" points="401.763,32.961 362.209,72.515 376.126,72.515 415.679,32.961 	"/>
	<polygon style="fill:#FFFFFF;" points="433.991,32.961 394.438,72.515 422.271,72.515 461.825,32.961 	"/>
</g>
<path style="fill:#666666;" d="M494.421,512H17.579c-9.102,0-16.481-7.379-16.481-16.481V191.176
	c0-18.205,14.757-32.961,32.961-32.961h443.88c18.205,0,32.961,14.757,32.961,32.961v304.343
	C510.901,504.621,503.522,512,494.421,512z"/>
<path style="fill:#FFD652;" d="M494.421,512H17.579c-9.102,0-16.481-7.379-16.481-16.481v-91.193h509.803v91.193
	C510.901,504.621,503.522,512,494.421,512z"/>
<rect x="1.099" y="404.326" style="fill:#F7EDBC;" width="509.803" height="20.952"/>
<path style="fill:#FB9D46;" d="M1.099,483.799v11.72c0,9.102,7.379,16.481,16.481,16.481h476.841
	c9.102,0,16.481-7.379,16.481-16.481v-11.72H1.099z"/>
<circle style="fill:#FF7452;" cx="256" cy="457.064" r="24.172"/>
<path style="fill:#458FDE;" d="M405.974,377.957h-18.678c-4.551,0-8.24-3.689-8.24-8.24v-18.678c0-4.551,3.689-8.24,8.24-8.24
	h18.678c4.551,0,8.24,3.689,8.24,8.24v18.678C414.215,374.268,410.525,377.957,405.974,377.957z"/>
<path style="fill:#5AC779;" d="M476.292,377.957h-18.678c-4.551,0-8.24-3.689-8.24-8.24v-18.678c0-4.551,3.689-8.24,8.24-8.24
	h18.678c4.551,0,8.24,3.689,8.24,8.24v18.678C484.532,374.268,480.843,377.957,476.292,377.957z"/>
<g>
	<path style="fill:#458FDE;" d="M335.657,316.429h-18.678c-4.551,0-8.24-3.689-8.24-8.24v-18.678c0-4.551,3.689-8.24,8.24-8.24
		h18.678c4.551,0,8.24,3.689,8.24,8.24v18.678C343.897,312.74,340.208,316.429,335.657,316.429z"/>
	<path style="fill:#458FDE;" d="M405.974,316.429h-18.678c-4.551,0-8.24-3.689-8.24-8.24v-18.678c0-4.551,3.689-8.24,8.24-8.24
		h18.678c4.551,0,8.24,3.689,8.24,8.24v18.678C414.215,312.74,410.525,316.429,405.974,316.429z"/>
	<path style="fill:#458FDE;" d="M335.657,377.957H176.343c-4.551,0-8.24-3.689-8.24-8.24v-18.678c0-4.551,3.689-8.24,8.24-8.24
		h159.313c4.551,0,8.24,3.689,8.24,8.24v18.678C343.897,374.268,340.208,377.957,335.657,377.957z"/>
	<path style="fill:#458FDE;" d="M195.021,316.429h-18.678c-4.551,0-8.24-3.689-8.24-8.24v-18.678c0-4.551,3.689-8.24,8.24-8.24
		h18.678c4.551,0,8.24,3.689,8.24,8.24v18.678C203.262,312.74,199.572,316.429,195.021,316.429z"/>
	<path style="fill:#458FDE;" d="M265.339,316.429h-18.678c-4.551,0-8.24-3.689-8.24-8.24v-18.678c0-4.551,3.689-8.24,8.24-8.24
		h18.678c4.551,0,8.24,3.689,8.24,8.24v18.678C273.579,312.74,269.89,316.429,265.339,316.429z"/>
	<path style="fill:#458FDE;" d="M54.386,377.957H35.708c-4.551,0-8.24-3.689-8.24-8.24v-18.678c0-4.551,3.689-8.24,8.24-8.24h18.678
		c4.551,0,8.24,3.689,8.24,8.24v18.678C62.627,374.268,58.937,377.957,54.386,377.957z"/>
	<path style="fill:#458FDE;" d="M124.704,377.957h-18.678c-4.551,0-8.24-3.689-8.24-8.24v-18.678c0-4.551,3.689-8.24,8.24-8.24
		h18.678c4.551,0,8.24,3.689,8.24,8.24v18.678C132.944,374.268,129.255,377.957,124.704,377.957z"/>
	<path style="fill:#458FDE;" d="M54.386,316.429H35.708c-4.551,0-8.24-3.689-8.24-8.24v-18.678c0-4.551,3.689-8.24,8.24-8.24h18.678
		c4.551,0,8.24,3.689,8.24,8.24v18.678C62.627,312.74,58.937,316.429,54.386,316.429z"/>
	<path style="fill:#458FDE;" d="M124.704,316.429h-18.678c-4.551,0-8.24-3.689-8.24-8.24v-18.678c0-4.551,3.689-8.24,8.24-8.24
		h18.678c4.551,0,8.24,3.689,8.24,8.24v18.678C132.944,312.74,129.255,316.429,124.704,316.429z"/>
</g>
<path style="fill:#E24642;" d="M476.292,316.429h-18.678c-4.551,0-8.24-3.689-8.24-8.24v-18.678c0-4.551,3.689-8.24,8.24-8.24
	h18.678c4.551,0,8.24,3.689,8.24,8.24v18.678C484.532,312.74,480.843,316.429,476.292,316.429z"/>
<path style="fill:#4C4C4C;" d="M325.219,261.494c-15.146,0-27.468-12.322-27.468-27.468v-28.567
	c0-15.146,12.322-27.468,27.468-27.468h142.833c15.146,0,27.468,12.322,27.468,27.468v28.567c0,15.146-12.322,27.468-27.468,27.468
	H325.219z"/>
<path style="fill:#AFF078;" d="M468.052,250.506H325.219c-9.102,0-16.481-7.379-16.481-16.481v-28.567
	c0-9.102,7.379-16.481,16.481-16.481h142.833c9.102,0,16.481,7.379,16.481,16.481v28.567
	C484.532,243.127,477.153,250.506,468.052,250.506z"/>
<g>
	<polygon style="fill:#FFFFFF;" points="444.429,188.979 430.695,188.979 369.167,250.506 382.901,250.506 	"/>
	<path style="fill:#FFFFFF;" d="M468.052,188.979h-5.494l-61.528,61.528h31.863l50.644-50.644
		C481.243,193.52,475.185,188.979,468.052,188.979z"/>
</g>
<path style="fill:#AFF078;" d="M325.219,188.979c-9.102,0-16.481,7.379-16.481,16.481v15.748l32.229-32.229H325.219z"/>
<path style="fill:#E5E5E5;" d="M215.348,250.506H74.712V16.481C74.712,7.379,82.091,0,91.193,0h107.674
	c9.102,0,16.481,7.379,16.481,16.481V250.506z"/>
<path style="fill:#CCCCCC;" d="M96.422,0h-5.229c-9.102,0-16.481,7.379-16.481,16.481v234.026h77.104L96.422,0z"/>
<path style="fill:#4C4C4C;" d="M247.21,258.747H42.85c-4.552,0-8.24-3.688-8.24-8.24s3.688-8.24,8.24-8.24H247.21
	c4.552,0,8.24,3.688,8.24,8.24S251.762,258.747,247.21,258.747z"/>
<g>
	<path style="fill:#B2B2B2;" d="M176.893,188.429h-59.33c-4.552,0-8.24-3.688-8.24-8.24s3.688-8.24,8.24-8.24h59.33
		c4.552,0,8.24,3.688,8.24,8.24S181.445,188.429,176.893,188.429z"/>
	<path style="fill:#B2B2B2;" d="M176.893,223.588h-59.33c-4.552,0-8.24-3.688-8.24-8.24s3.688-8.24,8.24-8.24h59.33
		c4.552,0,8.24,3.688,8.24,8.24S181.445,223.588,176.893,223.588z"/>
</g>
<path style="fill:#FB9D46;" d="M176.893,58.781c4.552,0,8.24-3.688,8.24-8.24s-3.688-8.24-8.24-8.24h-22.524v-9.339
	c0-4.552-3.688-8.24-8.24-8.24s-8.24,3.688-8.24,8.24V42.3h-7.142c-10.601,0-19.227,8.626-19.227,19.227v17.579
	c0,10.601,8.626,19.227,19.227,19.227h7.142v23.073h-22.524c-4.552,0-8.24,3.688-8.24,8.24c0,4.552,3.688,8.24,8.24,8.24h22.524
	v9.339c0,4.552,3.688,8.24,8.24,8.24s8.24-3.688,8.24-8.24v-9.339h7.142c10.601,0,19.227-8.626,19.227-19.227v-17.579
	c0-10.601-8.626-19.227-19.227-19.227h-7.142V58.781H176.893z M161.511,98.335c1.515,0,2.747,1.232,2.747,2.747v17.579
	c0,1.515-1.232,2.747-2.747,2.747h-7.142V98.335H161.511z M137.888,81.854h-7.142c-1.515,0-2.747-1.232-2.747-2.747V61.528
	c0-1.515,1.232-2.747,2.747-2.747h7.142V81.854z"/>
<g>
</g>
<g>
</g>
<g>
</g>
<g>
</g>
<g>
</g>
<g>
</g>
<g>
</g>
<g>
</g>
<g>
</g>
<g>
</g>
<g>
</g>
<g>
</g>
<g>
</g>
<g>
</g>
<g>
</g>
</svg>
